<svg width="24" height="24" viewBox="0 0 24 24" fill="none" xmlns="http://www.w3.org/2000/svg">
<mask id="mask0_56724_8687" style="mask-type:alpha" maskUnits="userSpaceOnUse" x="-1" y="0" width="25" height="24">
<rect x="-0.000488281" width="24" height="24" fill="#D9D9D9"/>
</mask>
<g mask="url(#mask0_56724_8687)">
<path d="M12.6995 10.3L15.2995 12.9C15.6162 13.2166 15.687 13.5791 15.512 13.9875C15.337 14.3958 15.0245 14.6 14.5745 14.6H9.42454C8.97454 14.6 8.66204 14.3958 8.48704 13.9875C8.31204 13.5791 8.38287 13.2166 8.69954 12.9L11.2995 10.3C11.3995 10.2 11.5079 10.125 11.6245 10.075C11.7412 10.025 11.8662 9.99998 11.9995 9.99998C12.1329 9.99998 12.2579 10.025 12.3745 10.075C12.4912 10.125 12.5995 10.2 12.6995 10.3Z" fill="#4589FF"/>
</g>
</svg>
