<svg width="19" height="18" viewBox="0 0 19 18" fill="none" xmlns="http://www.w3.org/2000/svg">
<path d="M9.65436 10.864L3.12103 17.3887C2.87658 17.6329 2.56547 17.7549 2.1877 17.7549C1.80992 17.7549 1.49881 17.6329 1.25436 17.3887C1.00992 17.1446 0.887695 16.8339 0.887695 16.4566C0.887695 16.0793 1.00992 15.7686 1.25436 15.5245L7.7877 8.99978L1.25436 2.47503C1.00992 2.2309 0.887695 1.9202 0.887695 1.54292C0.887695 1.16564 1.00992 0.854937 1.25436 0.610814C1.49881 0.366691 1.80992 0.244629 2.1877 0.244629C2.56547 0.244629 2.87658 0.366691 3.12103 0.610814L9.65436 7.13556L16.1877 0.610814C16.4321 0.366691 16.7433 0.244629 17.121 0.244629C17.4988 0.244629 17.8099 0.366691 18.0544 0.610814C18.2988 0.854937 18.421 1.16564 18.421 1.54292C18.421 1.9202 18.2988 2.2309 18.0544 2.47503L11.521 8.99978L18.0544 15.5245C18.2988 15.7686 18.421 16.0793 18.421 16.4566C18.421 16.8339 18.2988 17.1446 18.0544 17.3887C17.8099 17.6329 17.4988 17.7549 17.121 17.7549C16.7433 17.7549 16.4321 17.6329 16.1877 17.3887L9.65436 10.864Z" fill="#4589FF"/>
</svg>
