<svg width="19" height="18" viewBox="0 0 19 18" fill="none" xmlns="http://www.w3.org/2000/svg">
<path d="M7.36611 13.2137C5.54892 13.2137 4.01099 12.5843 2.75229 11.3256C1.4936 10.0669 0.864258 8.52899 0.864258 6.71181C0.864258 4.89463 1.4936 3.35669 2.75229 2.098C4.01099 0.839307 5.54892 0.209961 7.36611 0.209961C9.18329 0.209961 10.7212 0.839307 11.9799 2.098C13.2386 3.35669 13.868 4.89463 13.868 6.71181C13.868 7.44535 13.7513 8.13721 13.5179 8.7874C13.2845 9.43758 12.9677 10.0127 12.5676 10.5129L18.1692 16.1145C18.3526 16.2979 18.4443 16.5313 18.4443 16.8147C18.4443 17.0981 18.3526 17.3315 18.1692 17.5149C17.9858 17.6983 17.7524 17.79 17.469 17.79C17.1856 17.79 16.9522 17.6983 16.7688 17.5149L11.1672 11.9133C10.667 12.3134 10.0919 12.6302 9.4417 12.8636C8.79151 13.097 8.09965 13.2137 7.36611 13.2137ZM7.36611 11.2131C8.61646 11.2131 9.67926 10.7755 10.5545 9.90022C11.4298 9.02497 11.8674 7.96217 11.8674 6.71181C11.8674 5.46145 11.4298 4.39865 10.5545 3.5234C9.67926 2.64815 8.61646 2.21053 7.36611 2.21053C6.11575 2.21053 5.05295 2.64815 4.1777 3.5234C3.30245 4.39865 2.86483 5.46145 2.86483 6.71181C2.86483 7.96217 3.30245 9.02497 4.1777 9.90022C5.05295 10.7755 6.11575 11.2131 7.36611 11.2131Z" fill="#42526E"/>
</svg>
